<?xml version="1.0" encoding="utf-8"?>
<!-- Generator: Adobe Illustrator 25.2.1, SVG Export Plug-In . SVG Version: 6.00 Build 0)  -->
<svg version="1.1" id="Layer_1" xmlns="http://www.w3.org/2000/svg" xmlns:xlink="http://www.w3.org/1999/xlink" x="0px" y="0px"
	 viewBox="0 0 1054 147.7" style="enable-background:new 0 0 1054 147.7;" xml:space="preserve">
<style type="text/css">
	.st0{fill:none;}
	.st1{fill:#050000;}
</style>
<g>
	<rect x="1578.3" y="710.8" class="st0" width="7.4" height="0"/>
</g>
<g>
	<g>
		<path d="M263.5,102.4l-9.1-45.2l-23.8,45.2h-39.6l13.4-73.2h22.6l-9.1,54.9l-12.9,3.7h12.2l30.5-58.6h20.7l13.4,58.6l13.5-58.6
			h22.5l-15.8,73.2H263.5z"/>
		<path d="M397.2,29.2c1.9,0,3.6,0.4,5.3,1.2c1.6,0.8,3,1.9,4.1,3.2c1.1,1.4,1.9,2.9,2.4,4.7c0.5,1.7,0.5,3.6,0.1,5.4l-9.7,48.8
			c-0.6,2.9-2,5.3-4.2,7.1c-2.3,1.8-4.9,2.7-7.8,2.7h-53.1c-2,0-3.7-0.4-5.4-1.2c-1.6-0.8-3-1.9-4.1-3.2c-1.1-1.4-1.9-2.9-2.4-4.7
			c-0.5-1.8-0.6-3.6-0.2-5.5l9.8-48.7c0.6-2.9,2-5.3,4.2-7.1c2.2-1.8,4.8-2.7,7.7-2.7H397.2z M339.6,46.2l12.2,3.7l-6.5,32.5
			c-0.1,0.8,0,1.4,0.5,2c0.5,0.6,1.1,0.9,1.9,0.9h44l-12.1-3.7l6.5-32.5c0.1-0.8,0-1.4-0.5-2c-0.5-0.6-1.1-0.9-1.9-0.9H339.6z"/>
		<path d="M413.6,102.4l14.6-73.2h24.4l-10.5,52.5l-13,3.7h57.6l-3.5,17H413.6z"/>
		<path d="M574.2,46.2h-59.3l12.1,3.7l-1.5,7.3h39.1l-3.5,17.1h-39l-5.6,28h-22l14.6-73.2h68.3L574.2,46.2z"/>
		<path d="M578.2,102.4l14.6-73.2h22l-3.5,17h-12.9l12.1,3.7l-10.5,52.5H578.2z"/>
		<path d="M626.1,29.2h74.7l-3.4,17H660l12.2,3.7l-10.6,52.5h-24.4l11.2-56.2h-25.8L626.1,29.2z"/>
		<path d="M776.9,29.2h22l-14.6,73.2h-37.8l-11.6-57.9h-13l12.2,3.7l-10.9,54.3h-22l14.6-73.2h37.9l11.6,57.9L776.9,29.2z"/>
		<path d="M820.7,46.2l12.2,3.7l-1.6,7.9h39.1l-3.1,15.9h-39.2l-1.7,8.7c-0.1,0.8,0,1.4,0.5,2c0.5,0.6,1.1,0.9,1.9,0.9h43.3l-3.3,17
			h-53.4c-2,0-3.7-0.4-5.4-1.2c-1.6-0.8-3-1.9-4.1-3.2c-1.1-1.4-1.9-2.9-2.4-4.7c-0.5-1.8-0.6-3.6-0.2-5.5l11.7-58.6h68.4l-3.5,17
			H820.7z"/>
		<path d="M882.7,86.3l1.2-5.9h22l-0.4,2c-0.1,0.8,0,1.4,0.5,2c0.5,0.6,1.1,0.9,1.9,0.9H949l-12.2-3.7l1.2-5.6c0.1-0.8,0-1.4-0.5-2
			c-0.5-0.6-1.1-0.9-1.9-0.9h-33.9c-2.1,0-4-0.5-5.9-1.4c-1.8-0.9-3.3-2.1-4.5-3.6c-1.2-1.5-2-3.2-2.6-5.1c-0.5-2-0.6-4-0.2-6.1
			l3.3-17c0.6-3.1,2.2-5.7,4.7-7.7c2.5-2,5.3-3,8.5-3h48.3c2.1,0,4,0.5,5.9,1.4c1.8,0.9,3.3,2.1,4.5,3.6c1.2,1.5,2.1,3.2,2.6,5.1
			c0.6,1.9,0.6,3.9,0.2,6l-1.3,6h-22l0.4-2c0.1-0.8,0-1.4-0.5-2c-0.5-0.6-1.1-0.9-1.9-0.9h-41.6l12.1,3.7l-0.8,4.4
			c-0.1,0.8,0,1.4,0.5,2c0.5,0.6,1.1,0.9,1.9,0.9h27.7c2.1,0,3.8,0,5.1,0l2,0.1c2,0.1,3.9,0.7,5.5,1.6c1.6,0.9,3,2.1,4.1,3.6
			c1.1,1.5,1.9,3.1,2.4,5c0.5,1.8,0.5,3.8,0.1,5.8l-3.7,18.3c-0.6,3.1-2.2,5.7-4.7,7.7c-2.5,2-5.3,3-8.5,3h-47.8
			c-2.1,0-4-0.5-5.9-1.4c-1.8-0.9-3.3-2.1-4.5-3.6c-1.2-1.5-2-3.2-2.6-5.1C882.4,90.4,882.3,88.4,882.7,86.3z"/>
		<path d="M969.8,86.3l1.2-5.9h22l-0.4,2c-0.1,0.8,0,1.4,0.5,2c0.5,0.6,1.1,0.9,1.9,0.9h41.2l-12.2-3.7l1.2-5.6c0.1-0.8,0-1.4-0.5-2
			c-0.5-0.6-1.1-0.9-1.9-0.9h-33.9c-2.1,0-4-0.5-5.9-1.4c-1.8-0.9-3.3-2.1-4.5-3.6c-1.2-1.5-2-3.2-2.6-5.1c-0.5-2-0.6-4-0.2-6.1
			l3.3-17c0.6-3.1,2.2-5.7,4.7-7.7c2.5-2,5.3-3,8.5-3h48.3c2.1,0,4,0.5,5.9,1.4c1.8,0.9,3.3,2.1,4.5,3.6c1.2,1.5,2.1,3.2,2.6,5.1
			c0.6,1.9,0.6,3.9,0.2,6l-1.3,6h-22l0.4-2c0.1-0.8,0-1.4-0.5-2c-0.5-0.6-1.1-0.9-1.9-0.9h-41.6l12.1,3.7l-0.8,4.4
			c-0.1,0.8,0,1.4,0.5,2c0.5,0.6,1.1,0.9,1.9,0.9h27.7c2.1,0,3.8,0,5.1,0l2,0.1c2,0.1,3.9,0.7,5.5,1.6c1.6,0.9,3,2.1,4.1,3.6
			c1.1,1.5,1.9,3.1,2.4,5c0.5,1.8,0.5,3.8,0.1,5.8l-3.7,18.3c-0.6,3.1-2.2,5.7-4.7,7.7c-2.5,2-5.3,3-8.5,3h-47.8
			c-2.1,0-4-0.5-5.9-1.4c-1.8-0.9-3.3-2.1-4.5-3.6c-1.2-1.5-2-3.2-2.6-5.1C969.5,90.4,969.4,88.4,969.8,86.3z"/>
	</g>
	<g>
		<path id="XMLID_3_" d="M98.2,137.4"/>
		<path id="XMLID_2_" d="M0,26.8"/>
		<path id="XMLID_1_" d="M76.5,137.4"/>
		<polygon class="st1" points="127.6,71.2 105.8,84.2 84,71.2 84,39.4 105.8,30.9 127.6,39.4 		"/>
		<path class="st1" d="M81.8,129.5"/>
		<polygon class="st1" points="134.1,0 134.1,44.3 108.6,44.3 108.6,74.1 147.2,76.6 141.1,67.4 169.4,49.5 153.6,82.2 134.1,82.2 
			108.6,82.5 108.6,102.9 125.4,102.9 141,120 174.7,101.9 190.2,26.6 		"/>
		<polyline class="st1" points="108.9,147.7 124,147.7 139.7,126.8 124,106 108.9,106 		"/>
		<polygon class="st1" points="76.8,0 76.8,44.3 102.2,44.3 102.2,74.1 63.7,76.6 69.8,67.4 41.5,49.5 57.3,82.2 76.8,82.2 
			102.2,82.5 102.2,102.9 85.5,102.9 69.9,120 36.2,101.9 20.7,26.6 		"/>
		<polyline class="st1" points="102,147.7 86.9,147.7 71.1,126.8 86.9,106 102,106 		"/>
	</g>
</g>
<g>
</g>
<g>
</g>
<g>
</g>
<g>
</g>
<g>
</g>
<g>
</g>
<g>
</g>
<g>
</g>
<g>
</g>
<g>
</g>
<g>
</g>
<g>
</g>
<g>
</g>
<g>
</g>
<g>
</g>
</svg>
