<?xml version="1.0" encoding="utf-8"?>
<!-- Generator: Adobe Illustrator 25.2.1, SVG Export Plug-In . SVG Version: 6.00 Build 0)  -->
<svg version="1.1" id="Layer_1" xmlns="http://www.w3.org/2000/svg" xmlns:xlink="http://www.w3.org/1999/xlink" x="0px" y="0px"
	 viewBox="0 0 1054 147.7" style="enable-background:new 0 0 1054 147.7;" xml:space="preserve">
<style type="text/css">
	.st0{fill:none;}
	.st1{fill:#050000;}
</style>
<g>
	<polygon class="st0" points="1578.3,710.8 1585.7,710.8 1585.7,710.8 	"/>
</g>
<g>
	<path id="XMLID_3_" d="M98.2,137.4"/>
	<path id="XMLID_2_" d="M0,26.8"/>
	<path id="XMLID_1_" d="M76.5,137.4"/>
	<polygon class="st1" points="127.6,71.2 105.8,84.2 84,71.2 84,39.4 105.8,30.9 127.6,39.4 	"/>
	<path class="st1" d="M81.8,129.5"/>
	<polygon class="st1" points="134.1,0 134.1,44.3 108.6,44.3 108.6,74.1 147.2,76.6 141.1,67.4 169.4,49.5 153.6,82.2 134.1,82.2 
		108.6,82.5 108.6,102.9 125.4,102.9 141,120 174.7,101.9 190.2,26.6 	"/>
	<polyline class="st1" points="108.9,147.7 124,147.7 139.7,126.8 124,106 108.9,106 	"/>
	<polygon class="st1" points="76.8,0 76.8,44.3 102.2,44.3 102.2,74.1 63.7,76.6 69.8,67.4 41.5,49.5 57.3,82.2 76.8,82.2 
		102.2,82.5 102.2,102.9 85.5,102.9 69.9,120 36.2,101.9 20.7,26.6 	"/>
	<polyline class="st1" points="102,147.7 86.9,147.7 71.1,126.8 86.9,106 102,106 	"/>
</g>
</svg>
