<svg id="Layer_1" data-name="Layer 1" xmlns="http://www.w3.org/2000/svg" viewBox="0 0 1272 710.8"><defs><style>.cls-1{fill:none;}.cls-2{fill:#050000;}</style></defs><polygon class="cls-1" points="1264.6 710.8 1272 710.8 1272 710.8 1264.6 710.8"/><path d="M391.2,137.4" transform="translate(-313.7)"/><path d="M293,26.8" transform="translate(-313.7)"/><path d="M369.5,137.4" transform="translate(-313.7)"/><polygon class="cls-2" points="106.9 71.2 85.1 84.2 63.3 71.2 63.3 39.4 85.1 30.9 106.9 39.4 106.9 71.2"/><path class="cls-2" d="M374.8,129.5" transform="translate(-313.7)"/><polygon class="cls-2" points="113.4 0 113.4 44.3 87.9 44.3 87.9 74.1 126.5 76.6 120.4 67.4 148.7 49.5 132.9 82.2 113.4 82.2 87.9 82.5 87.9 102.9 104.7 102.9 120.3 120 154 101.9 169.5 26.6 113.4 0"/><polyline class="cls-2" points="88.2 147.7 103.3 147.7 119 126.8 103.3 106 88.2 106"/><polygon class="cls-2" points="56.1 0 56.1 44.3 81.5 44.3 81.5 74.1 43 76.6 49.1 67.4 20.8 49.5 36.6 82.2 56.1 82.2 81.5 82.5 81.5 102.9 64.8 102.9 49.2 120 15.5 101.9 0 26.6 56.1 0"/><polyline class="cls-2" points="81.3 147.7 66.2 147.7 50.4 126.8 66.2 106 81.3 106"/></svg>